:SAMPLES-PER-SECOND 30
:FULLY-SPECIFIED
:DEGREES
27
root  35.00588785 36.52643519 -14.70469978 9.886742592 0.1204874367 2.829026222
lowerback  -8.094313622 0.4667753279 1.247658253
upperback  -3.722379923 0.2322559953 -2.747380018
thorax  0.7062590122 -0.06697785109 -3.521539927
lowerneck  -15.17300034 2.964790106 2.140959978
upperneck  14.5678997 2.710129976 3.783449888
head  6.934559822 1.697870016 1.148790002
lclavicle  0 -4.497500157e-015 -2.743230041e-014
lhumerus  -44.04050064 25.39920044 71.16629791
lradius  -0.4612202942 -6.507048965e-006 28.94790268
lwrist  4.824992743e-007 -3.790274832e-007 -28.06979942
lhand  -3.519128829e-031 -36.95059967 -10.63599968
lfingers  90 7.125020027 -90
lthumb  94.83142853 -25.47070885 101.1195602
rclavicle  0 -4.497500157e-015 -2.743230041e-014
rhumerus  -43.07329941 -16.60410118 -73.59790039
rradius  -5.16745672e-007 2.214343908e-008 52.61709976
rwrist  1.129822067e-006 0.001802438172 -159.279007
rhand  -3.020376775e-031 -2.507760048 -7.639910221
rfingers  -90 -7.125020027 -90
rthumb  -86.53787994 -8.025252342 -66.57076263
rfemur  -12.71589279 15.09728336 13.54327869
rtibia  -0.6760733128 0.588101685 20.45064735
rfoot  -0.3197113872 -19.31098557 -39.35551453
rtoes  4.050399303 19.61081123 -101.9184799
lfemur  -10.28092957 -16.88292122 -18.44629669
ltibia  1.822110176 1.095115185 15.78037071
lfoot  0.5601174831 -27.99900055 33.99000931
ltoes  -8.712032318 -18.07314301 -116.2867584
28
root  35.00480351 36.52736333 -14.70070636 9.91556263 0.1757376045 2.838671923
lowerback  -8.087862015 0.4678046405 1.26767385
upperback  -3.709739923 0.2436670065 -2.762409925
thorax  0.7166799903 -0.06759981811 -3.548130035
lowerneck  -15.14239979 2.988650084 2.190779924
upperneck  14.41670036 2.745049953 3.764359951
head  6.881060123 1.715149999 1.135599971
lclavicle  0 -4.497500157e-015 -2.743230041e-014
lhumerus  -44.02590179 25.41690063 71.14620209
lradius  -0.4620592892 -6.507048965e-006 28.92499924
lwrist  4.824992743e-007 -3.790274832e-007 -28.05200005
lhand  -3.522259407e-031 -36.98699951 -10.59319973
lfingers  90 7.125020027 -90
lthumb  94.8392868 -25.42742348 101.1545105
rclavicle  0 -4.497500157e-015 -2.743230041e-014
rhumerus  -42.91970062 -16.17149925 -73.79019928
rradius  -5.16745672e-007 2.214343908e-008 53.5461998
rwrist  1.129822067e-006 0.001802438172 -160.3930054
rhand  -3.03566597e-031 -2.322849989 -7.412879944
rfingers  -90 -7.125020027 -90
rthumb  -86.41201019 -8.243016243 -66.37767029
rfemur  -12.75161171 15.08949566 13.54023266
rtibia  -0.6836813092 0.6077952981 20.48504448
rfoot  -0.3394430578 -19.27645302 -39.38989258
rtoes  4.076469421 19.61110115 -101.9962006
lfemur  -10.23773098 -16.87135696 -18.47114182
ltibia  1.886524558 1.14344871 15.6699028
lfoot  0.5707330704 -28.03676605 33.98350906
ltoes  -8.685216904 -18.08571053 -116.2003479
29
root  35.00222033 36.52793704 -14.69643811 9.923625946 0.2464379221 2.843669415
lowerback  -8.083769798 0.4692100883 1.279430032
upperback  -3.708909988 0.241275996 -2.774430037
thorax  0.7151830196 -0.06860892475 -3.568130016
lowerneck  -15.09790039 3.021820068 2.223589897
upperneck  14.24600029 2.796109915 3.756180048
head  6.818309784 1.739940047 1.129789948
lclavicle  0 -4.497500157e-015 -2.743230041e-014
lhumerus  -44.02640152 25.37050056 71.16600037
lradius  -0.4628932774 -6.507048965e-006 28.97360039
lwrist  4.824992743e-007 -3.790274832e-007 -28.00959969
lhand  -3.522214873e-031 -36.94179916 -10.60009956
lfingers  90 7.125020027 -90
lthumb  94.81964874 -25.43580246 101.1068497
rclavicle  0 -4.497500157e-015 -2.743230041e-014
rhumerus  -42.74100113 -15.50160122 -74.17579651
rradius  -5.16745672e-007 2.214343908e-008 54.61729813
rwrist  1.129822067e-006 0.001802438172 -160.7640076
rhand  -3.033915194e-031 -2.254040003 -7.439350128
rfingers  -90 -7.125020027 -90
rthumb  -86.40977478 -8.222394943 -66.31215668
rfemur  -12.75636578 15.07093048 13.55123997
rtibia  -0.6870524287 0.6225692034 20.51140976
rfoot  -0.3541565239 -19.2679863 -39.41172409
rtoes  4.056153774 19.61135674 -101.9356384
lfemur  -10.16955948 -16.86794281 -18.49718094
ltibia  1.949406266 1.188875675 15.55599976
lfoot  0.5693106055 -28.07270241 33.95566559
ltoes  -8.652820587 -18.10082817 -116.0960388
30
root  35.000328 36.52824943 -14.69222842 9.919219971 0.3120852411 2.83684206
lowerback  -8.099639893 0.4710693657 1.251280665
upperback  -3.704819918 0.2334990054 -2.781219959
thorax  0.7275130153 -0.06854876131 -3.559969902
lowerneck  -15.13679981 3.056190014 2.245589972
upperneck  14.17619991 2.837899923 3.773819923
head  6.802149773 1.76315999 1.136000037
lclavicle  0 -4.497500157e-015 -2.743230041e-014
lhumerus  -44.03580093 25.41799927 71.15550232
lradius  -0.4637230039 -6.507048965e-006 29.01589966
lwrist  4.824992743e-007 -3.790274832e-007 -27.98360062
lhand  -3.523108897e-031 -36.98189926 -10.58370018
lfingers  90 7.125020027 -90
lthumb  94.83488464 -25.4183197 101.1482162
rclavicle  0 -4.497500157e-015 -2.743230041e-014
rhumerus  -42.57429886 -14.92210102 -74.50540161
rradius  -5.16745672e-007 2.214343908e-008 55.71770096
rwrist  1.129822067e-006 0.001802438172 -161.3119965
rhand  -3.02833081e-031 -2.331619978 -7.522240162
rfingers  -90 -7.125020027 -90
rthumb  -86.457901 -8.142381668 -66.39250946
rfemur  -12.73045635 15.04601097 13.57412148
rtibia  -0.6826660633 0.6410250664 20.50366592
rfoot  -0.3536174297 -19.25096321 -39.42473984
rtoes  4.073592663 19.6115799 -101.9876251
lfemur  -10.08785725 -16.82098007 -18.50950432
ltibia  2.004072189 1.249098182 15.44126892
lfoot  0.5772582293 -28.14016151 33.943573
ltoes  -8.694286346 -18.08146477 -116.2295685
31
root  35.00116303 36.52840261 -14.68965275 9.898187637 0.3827412426 2.807286263
lowerback  -8.138349533 0.4734600186 1.198240757
upperback  -3.711139917 0.2335750014 -2.802680016
thorax  0.7421799898 -0.06630089879 -3.552390099
lowerneck  -15.15240002 3.074840069 2.249959946
upperneck  14.09889984 2.861320019 3.801759958
head  6.779290199 1.77699995 1.145930171
lclavicle  0 -4.497500157e-015 -2.743230041e-014
lhumerus  -44.0182991 25.78100014 70.8973999
lradius  -0.4645492733 -6.507048965e-006 28.76650047
lwrist  4.824992743e-007 -3.790274832e-007 -28.34799957
lhand  -3.527241064e-031 -36.95119858 -10.53829956
lfingers  90 7.125020027 -90
lthumb  94.81083679 -25.374897 101.1111679
rclavicle  0 -4.497500157e-015 -2.743230041e-014
rhumerus  -42.37620163 -14.33250141 -74.83309937
rradius  -5.16745672e-007 2.214343908e-008 56.8586998
rwrist  1.129822067e-006 0.001802438172 -161.7579956
rhand  -3.03745187e-031 -2.314559937 -7.386290073
rfingers  -90 -7.125020027 -90
rthumb  -86.39967346 -8.267800331 -66.36799622
rfemur  -12.65124321 15.0448761 13.60850143
rtibia  -0.6544598937 0.6803633571 20.42275429
rfoot  -0.3259049952 -19.18164253 -39.47351837
rtoes  4.083997726 19.61177254 -102.0186462
lfemur  -10.08690834 -16.90940285 -18.46575165
ltibia  1.973156691 1.236458302 15.484972
lfoot  0.5673003197 -28.13121796 33.94927597
ltoes  -8.736796379 -18.06149292 -116.3666077
32
root  34.99532685 36.52849573 -14.69503238 9.986323357 0.4276318848 2.760042191
lowerback  -8.158149719 0.4776399136 1.195489049
upperback  -3.663630009 0.2437739968 -2.838670015
thorax  0.802981019 -0.05884189904 -3.587579966
lowerneck  -15.1637001 3.082319975 2.242599964
upperneck  14.00469971 2.870599985 3.84355998
head  6.75 1.784309983 1.160449982
lclavicle  0 -4.497500157e-015 -2.743230041e-014
lhumerus  -44.06719971 25.58069992 70.98609924
lradius  -0.4653729498 -6.507048965e-006 28.92070007
lwrist  4.824992743e-007 -3.790274832e-007 -28.20429993
lhand  -3.526441704e-031 -36.97629929 -10.54440022
lfingers  90 7.125020027 -90
lthumb  94.82388306 -25.38002014 101.1386337
rclavicle  0 -4.497500157e-015 -2.743230041e-014
rhumerus  -42.07870102 -13.57350063 -75.1493988
rradius  -5.16745672e-007 2.214343908e-008 57.85649872
rwrist  1.129822067e-006 0.001802438172 -162.8829956
rhand  -3.041662698e-031 -2.216109991 -7.323999882
rfingers  -90 -7.125020027 -90
rthumb  -86.35572815 -8.329972267 -66.26843262
rfemur  -12.77124119 14.93144131 13.65843582
rtibia  -0.6588438749 0.6698781252 20.43666267
rfoot  -0.3189082444 -19.21378136 -39.41073227
rtoes  4.056864262 19.61193466 -101.9377518
lfemur  -10.40769958 -17.04681206 -18.2607708
ltibia  1.795699596 1.196848869 15.78670597
lfoot  0.5397151113 -28.13601685 33.90800476
ltoes  -8.727834702 -18.06571388 -116.3377075
33
root  34.99433563 36.52862489 -14.68707708 10.00145721 0.6278987527 2.763235569
lowerback  -8.149360657 0.4185539484 1.143740535
upperback  -3.664949894 0.1687210053 -2.829829931
thorax  0.7912430167 -0.09592889994 -3.555579901
lowerneck  -15.14449978 3.108609915 2.22758007
upperneck  13.87769985 2.906879902 3.901520014
head  6.704239845 1.804929972 1.183040023
lclavicle  0 -4.497500157e-015 -2.743230041e-014
lhumerus  -44.09400177 25.87010002 70.76470184
lradius  -0.4661947787 -6.507048965e-006 28.7493
lwrist  4.824992743e-007 -3.790274832e-007 -28.5632
lhand  -3.524868218e-031 -36.94869995 -10.56719971
lfingers  90 7.125020027 -90
lthumb  94.82215118 -25.40335083 101.1112595
rclavicle  0 -4.497500157e-015 -2.743230041e-014
rhumerus  -41.72750092 -13.13549995 -75.38420105
rradius  -5.16745672e-007 2.214343908e-008 58.83620071
rwrist  1.129822067e-006 0.001802438172 -163.098999
rhand  -3.044271952e-031 -1.984290004 -7.286180019
rfingers  -90 -7.125020027 -90
rthumb  -86.29601288 -8.376451492 -66.04016876
rfemur  -12.73581123 14.92440701 13.66895294
rtibia  -0.6504050493 0.7483831644 20.4116745
rfoot  -0.3352580965 -19.04747772 -39.5796814
rtoes  4.082399845 19.61206627 -102.0138855
lfemur  -10.43232441 -17.03616142 -18.25099754
ltibia  1.806637526 1.250520349 15.78185654
lfoot  0.5043222308 -28.25100517 33.70454407
ltoes  -8.689541817 -18.08368683 -116.2142792
